<svg width="686" height="714" viewBox="0 0 686 714" fill="none" xmlns="http://www.w3.org/2000/svg">
<g clip-path="url(#clip0_3_4)">
<path d="M672.361 0.146347H14.0296C6.69883 0.146347 0.756073 6.09253 0.756073 13.4275V511.453C0.756073 518.788 6.69883 524.735 14.0296 524.735H672.361C679.691 524.735 685.634 518.788 685.634 511.453V13.4275C685.634 6.09253 679.691 0.146347 672.361 0.146347Z" fill="#92A4B9"/>
<path d="M669.281 14.5254H17.109V497.375H669.281V14.5254Z" fill="white"/>
<path opacity="0.6" d="M669.706 488.504H669.281V23.3795V14.5254H17.109V23.3795H660.432V488.504H17.5338V497.358H660.432H669.281H669.706V488.504Z" fill="#E0E0E0"/>
<path d="M182.143 40.4857H176.25V457.213H182.143V40.4857Z" fill="#E0E0E0"/>
<path d="M622.24 71.7761H491.434V40.4857H485.027V71.7761H285.588V40.4857H279.164V71.7761H182.656V40.4857H176.25V71.7761H93.3521V40.4857H87.4587V71.7761H51.1777V77.6729H87.4587V457.231H93.3521V77.6729H176.25V457.231H182.656V77.6729H279.164V457.231H285.588V77.6729H485.027V457.231H491.434V77.6729H622.24V71.7761Z" fill="#C2DBF6"/>
<path opacity="0.7" d="M417.898 115.073L410.465 168.711L470.338 169.437L465.276 100.906L417.898 115.073Z" fill="#CCCCCC"/>
<path d="M465.258 100.906H406.802V162.956H465.258V100.906Z" fill="#DE4E96"/>
<path d="M449.383 96.5676H424.305V105.422H449.383V96.5676Z" fill="#CCCCCC"/>
<path d="M169.754 52.8106C169.754 55.1304 167.878 57.0251 165.542 57.0251H103.635C101.316 57.0251 99.4402 55.1481 99.4402 52.8106C99.4402 50.4908 101.316 48.596 103.635 48.596H165.56C167.878 48.596 169.772 50.4731 169.772 52.8106H169.754Z" fill="#C2DBF6"/>
<path d="M265.324 52.8106C265.324 55.1304 263.448 57.0251 261.112 57.0251H199.186C196.868 57.0251 194.992 55.1481 194.992 52.8106C194.992 50.4908 196.868 48.596 199.186 48.596H261.112C263.43 48.596 265.324 50.4731 265.324 52.8106Z" fill="#C2DBF6"/>
<path d="M592.737 52.8106C592.737 55.1304 590.861 57.0251 588.525 57.0251H526.6C524.281 57.0251 522.405 55.1481 522.405 52.8106C522.405 50.4908 524.281 48.596 526.6 48.596H588.525C590.843 48.596 592.737 50.4731 592.737 52.8106Z" fill="#C2DBF6"/>
<path d="M596.861 411.508C596.861 413.97 594.879 415.953 592.419 415.953H530.068C527.608 415.953 525.626 413.97 525.626 411.508C525.626 409.047 527.608 407.063 530.068 407.063H592.419C594.879 407.063 596.861 409.047 596.861 411.508Z" fill="#B1C909"/>
<path d="M596.861 429.216C596.861 431.678 594.879 433.661 592.419 433.661H530.068C527.608 433.661 525.626 431.678 525.626 429.216C525.626 426.755 527.608 424.772 530.068 424.772H592.419C594.879 424.772 596.861 426.755 596.861 429.216Z" fill="#B1C909"/>
<path d="M207.38 104.182L202.655 138.288L240.865 140.555V101.703L207.38 104.182Z" fill="#CCCCCC"/>
<path d="M243.732 96.5676H206.549V136.039H243.732V96.5676Z" fill="#959CE4"/>
<path opacity="0.7" d="M376.273 120.704H302.1V211.317H376.273V120.704Z" fill="#CCCCCC"/>
<path d="M224.335 142.255L230.016 176.237L267.164 166.975L255.554 129.894L224.335 142.255Z" fill="#CCCCCC"/>
<path d="M256.77 124.131L221.286 135.251L233.077 172.918L268.561 161.799L256.77 124.131Z" fill="#DE4E96"/>
<path opacity="0.2" d="M348.15 113.709C348.15 119.624 343.478 124.423 337.709 124.423C331.939 124.423 327.267 119.624 327.267 113.709C327.267 107.795 331.939 102.996 337.709 102.996C343.478 102.996 348.15 107.795 348.15 113.709Z" fill="#666666"/>
<path d="M305.958 250.098L298.525 303.736L358.61 307.295V246.22L305.958 250.098Z" fill="#CCCCCC"/>
<path opacity="0.7" d="M406.731 270.692L411.509 324.632L470.851 314.627L457.17 255.092L406.731 270.692Z" fill="#CCCCCC"/>
<path d="M459.765 246.179L402.798 259.297L416.706 319.766L473.673 306.648L459.765 246.179Z" fill="#FFBB2E"/>
<path d="M367.919 228.317L339.178 274.216L392.537 302.089L417.544 246.361L367.919 228.317Z" fill="#CCCCCC"/>
<path d="M363.123 238.145H304.667V300.194H363.123V238.145Z" fill="#959CE4"/>
<path d="M537.236 321.48L533.909 354.24L570.473 355.072L569.146 317.973L537.236 321.48Z" fill="#CCCCCC"/>
<path d="M571.733 312.927L536.219 314.217L537.587 351.911L573.101 350.62L571.733 312.927Z" fill="#959CE4"/>
<path opacity="0.7" d="M562.456 350.043L559.111 382.786L595.693 383.618L594.348 346.519L562.456 350.043Z" fill="#EADBEA"/>
<path d="M596.927 341.459L561.413 342.75L562.781 380.443L598.295 379.153L596.927 341.459Z" fill="#45C678"/>
<path opacity="0.7" d="M222.388 242.412L202.478 280.308L246.776 296.918L261.395 244.608L222.388 242.412Z" fill="#CCCCCC"/>
<path d="M217.951 228.912L201.302 275.03L244.763 290.737L261.412 244.62L217.951 228.912Z" fill="#B1C909"/>
<path d="M232.123 230.391L229.748 236.97L248.391 243.708L250.766 237.129L232.123 230.391Z" fill="#666666"/>
<path opacity="0.7" d="M389.528 434.104L340.576 460.312L313.339 398.599L362.787 375.862L389.528 434.104Z" fill="#CCCCCC"/>
<path d="M364.461 371.621L315.007 394.349L343.078 455.498L392.532 432.77L364.461 371.621Z" fill="#B1C909"/>
<path d="M324.215 383.381L312.549 406.589L319.822 410.249L331.488 387.041L324.215 383.381Z" fill="#FFDA8E"/>
<path d="M388.351 418.144L377.758 439.216L385.031 442.876L395.624 421.804L388.351 418.144Z" fill="#FFDA8E"/>
<path opacity="0.7" d="M410.483 229.238C410.483 235.152 405.811 239.951 400.041 239.951C394.272 239.951 389.599 235.152 389.599 229.238C389.599 223.323 394.272 218.524 400.041 218.524C405.811 218.524 410.483 223.323 410.483 229.238Z" fill="#CCCCCC"/>
<path opacity="0.7" d="M239.272 371.399L232.388 349.423L201.168 361.801L206.85 395.766L227.503 390.613L223.592 404.035L261.059 411.845L266.722 373.418L239.272 371.399Z" fill="#CCCCCC"/>
<path opacity="0.7" d="M208.867 402.512L199.222 435.574L236.688 443.401L242.352 404.956L208.867 402.512Z" fill="#CCCCCC"/>
<path d="M346.522 147.727C345.761 147.107 344.646 147.213 344.027 147.975L333.904 160.317L323.922 147.195C323.338 146.416 322.223 146.275 321.444 146.859C320.665 147.443 320.524 148.559 321.108 149.338L331.603 163.133L320.612 176.52C319.993 177.282 320.099 178.397 320.86 179.017C321.196 179.283 321.586 179.424 321.975 179.424C322.488 179.424 323.002 179.212 323.338 178.769L333.78 166.037L343.425 178.734C343.779 179.194 344.31 179.424 344.841 179.424C345.213 179.424 345.584 179.3 345.903 179.07C346.682 178.486 346.823 177.37 346.239 176.591L336.08 163.239L346.735 150.259C347.354 149.497 347.248 148.382 346.487 147.762L346.522 147.727Z" fill="#010202"/>
<path opacity="0.7" d="M131.704 281.494L116.784 312.555L152.481 326.367L164.339 289.375L131.704 281.494Z" fill="#CCCCCC"/>
<path d="M133.234 274.016L121.195 311.605L156.604 322.959L168.644 285.371L133.234 274.016Z" fill="#66C2F0"/>
<path opacity="0.7" d="M134.606 380.218C137.509 383.175 137.526 387.868 134.642 390.701C131.757 393.534 127.067 393.41 124.164 390.453C121.262 387.496 121.244 382.803 124.129 379.97C127.014 377.137 131.704 377.261 134.606 380.218Z" fill="#CCCCCC"/>
<path opacity="0.7" d="M559.712 190.727L520.935 265.198L581.158 296.593L619.936 222.122L559.712 190.727Z" fill="#CCCCCC"/>
<path opacity="0.7" d="M574.225 123.218L578.101 166.975L626.24 158.865L615.143 110.575L574.225 123.218Z" fill="#CCCCCC"/>
<path d="M617.252 103.321L571.029 113.965L582.314 163.027L628.536 152.383L617.252 103.321Z" fill="#FFBB2E"/>
<path opacity="0.7" d="M527.573 95.5405L501.575 137.084L549.855 162.3L572.491 111.885L527.573 95.5405Z" fill="#CCCCCC"/>
<path opacity="0.2" d="M607.214 341.809C607.214 347.174 602.984 351.513 597.763 351.513C592.542 351.513 588.313 347.174 588.313 341.809C588.313 336.443 592.542 332.105 597.763 332.105C602.984 332.105 607.214 336.443 607.214 341.809Z" fill="#666666"/>
<path d="M606.506 341.207C606.506 346.572 602.17 350.911 596.808 350.911C591.445 350.911 587.109 346.572 587.109 341.207C587.109 335.841 591.445 331.503 596.808 331.503C602.17 331.503 606.506 335.841 606.506 341.207Z" fill="#949494"/>
<path d="M605.904 341.207C605.904 346.572 601.568 350.911 596.206 350.911C590.843 350.911 586.507 346.572 586.507 341.207C586.507 335.841 590.843 331.503 596.206 331.503C601.568 331.503 605.904 335.841 605.904 341.207Z" fill="#CCCCCC"/>
<path d="M390.183 383.458C390.183 383.458 390.13 383.458 390.113 383.458C390.077 383.458 390.059 383.494 390.024 383.512C389.971 383.529 389.918 383.565 389.882 383.582C389.847 383.618 389.812 383.636 389.759 383.671C389.723 383.706 389.67 383.742 389.635 383.795C389.599 383.83 389.564 383.883 389.528 383.919C389.528 383.937 389.493 383.954 389.475 383.972C389.475 383.99 389.475 384.025 389.44 384.061C389.422 384.114 389.405 384.149 389.387 384.202C389.369 384.255 389.351 384.308 389.334 384.379C389.334 384.432 389.316 384.486 389.316 384.539C389.316 384.592 389.316 384.627 389.316 384.68C389.316 384.716 389.316 384.751 389.316 384.787C389.316 384.804 389.334 384.822 389.334 384.857C389.334 384.911 389.351 384.964 389.369 384.999C389.369 385.017 389.369 385.052 389.369 385.07L394.572 398.546C394.82 399.183 395.546 399.52 396.183 399.254C396.785 399.024 397.103 398.386 396.944 397.784C396.944 397.731 396.909 397.678 396.891 397.625L392.997 387.567L424.535 406.603C425.119 406.957 425.898 406.762 426.252 406.178C426.429 405.877 426.464 405.541 426.393 405.24C426.323 404.921 426.128 404.655 425.827 404.46L394.218 385.389L403.085 384.238C403.775 384.149 404.253 383.529 404.165 382.839C404.165 382.786 404.165 382.75 404.129 382.697C403.97 382.095 403.386 381.67 402.749 381.758L390.325 383.37C390.325 383.37 390.289 383.388 390.254 383.388C390.201 383.388 390.166 383.405 390.113 383.423L390.183 383.458Z" fill="#666666"/>
<path d="M157.932 127.628C157.932 127.628 157.985 127.628 158.003 127.628C158.038 127.628 158.056 127.592 158.091 127.575C158.145 127.557 158.198 127.539 158.233 127.504C158.268 127.468 158.322 127.451 158.357 127.415C158.41 127.38 158.445 127.344 158.481 127.309C158.516 127.274 158.552 127.221 158.587 127.185C158.587 127.167 158.622 127.15 158.64 127.132C158.64 127.114 158.64 127.079 158.676 127.043C158.693 127.008 158.711 126.955 158.746 126.902C158.764 126.849 158.782 126.796 158.799 126.725C158.799 126.672 158.817 126.618 158.835 126.565C158.835 126.512 158.835 126.459 158.835 126.424C158.835 126.388 158.835 126.353 158.835 126.317C158.835 126.3 158.835 126.282 158.817 126.247C158.817 126.193 158.799 126.14 158.782 126.105C158.782 126.087 158.782 126.052 158.782 126.034L153.968 112.416C153.738 111.761 153.03 111.425 152.375 111.655C151.773 111.868 151.437 112.487 151.561 113.107C151.561 113.16 151.579 113.213 151.596 113.266L155.189 123.431L124.217 103.492C123.633 103.12 122.855 103.279 122.483 103.863C122.288 104.147 122.253 104.501 122.306 104.802C122.377 105.121 122.554 105.404 122.855 105.581L153.897 125.574L144.995 126.459C144.305 126.53 143.809 127.15 143.88 127.823C143.88 127.876 143.88 127.911 143.898 127.964C144.039 128.584 144.606 129.009 145.243 128.938L157.72 127.699C157.72 127.699 157.755 127.699 157.791 127.681C157.844 127.681 157.897 127.663 157.932 127.646V127.628Z" fill="#666666"/>
<g opacity="0.7">
<path d="M369.512 326.172C369.512 328.634 367.53 330.617 365.07 330.617H302.72C300.26 330.617 298.277 328.634 298.277 326.172C298.277 323.711 300.26 321.728 302.72 321.728H365.07C367.53 321.728 369.512 323.711 369.512 326.172Z" fill="#CCCCCC"/>
<path d="M369.512 343.881C369.512 346.342 367.53 348.325 365.07 348.325H302.72C300.26 348.325 298.277 346.342 298.277 343.881C298.277 341.419 300.26 339.436 302.72 339.436H365.07C367.53 339.436 369.512 341.419 369.512 343.881Z" fill="#CCCCCC"/>
<path d="M164.303 154.969C164.303 157.023 162.64 158.67 160.605 158.67H108.572C106.519 158.67 104.874 157.006 104.874 154.969C104.874 152.915 106.537 151.268 108.572 151.268H160.605C162.658 151.268 164.303 152.933 164.303 154.969Z" fill="#CCCCCC"/>
<path d="M164.303 169.738C164.303 171.792 162.64 173.439 160.605 173.439H108.572C106.519 173.439 104.874 171.774 104.874 169.738C104.874 167.684 106.537 166.037 108.572 166.037H160.605C162.658 166.037 164.303 167.701 164.303 169.738Z" fill="#CCCCCC"/>
<path d="M473.842 186.508C473.842 188.969 471.86 190.952 469.4 190.952H407.05C404.589 190.952 402.607 188.969 402.607 186.508C402.607 184.046 404.589 182.063 407.05 182.063H469.4C471.86 182.063 473.842 184.046 473.842 186.508Z" fill="#CCCCCC"/>
<path d="M473.842 204.216C473.842 206.677 471.86 208.661 469.4 208.661H407.05C404.589 208.661 402.607 206.677 402.607 204.216C402.607 201.754 404.589 199.771 407.05 199.771H469.4C471.86 199.771 473.842 201.754 473.842 204.216Z" fill="#CCCCCC"/>
<path d="M259.466 314.662C259.466 316.716 257.802 318.363 255.767 318.363H203.735C201.682 318.363 200.036 316.698 200.036 314.662C200.036 312.608 201.699 310.961 203.735 310.961H255.767C257.82 310.961 259.466 312.626 259.466 314.662Z" fill="#CCCCCC"/>
<path d="M259.466 329.431C259.466 331.485 257.802 333.132 255.767 333.132H203.735C201.682 333.132 200.036 331.467 200.036 329.431C200.036 327.377 201.699 325.73 203.735 325.73H255.767C257.82 325.73 259.466 327.394 259.466 329.431Z" fill="#CCCCCC"/>
<path d="M259.466 193.52C259.466 195.574 257.802 197.221 255.767 197.221H203.735C201.682 197.221 200.036 195.557 200.036 193.52C200.036 191.466 201.699 189.819 203.735 189.819H255.767C257.82 189.819 259.466 191.484 259.466 193.52Z" fill="#CCCCCC"/>
<path d="M259.466 208.289C259.466 210.343 257.802 211.99 255.767 211.99H203.735C201.682 211.99 200.036 210.325 200.036 208.289C200.036 206.235 201.699 204.588 203.735 204.588H255.767C257.82 204.588 259.466 206.252 259.466 208.289Z" fill="#CCCCCC"/>
<path d="M164.303 345.35C164.303 347.404 162.64 349.051 160.605 349.051H108.572C106.519 349.051 104.874 347.387 104.874 345.35C104.874 343.296 106.537 341.649 108.572 341.649H160.605C162.658 341.649 164.303 343.314 164.303 345.35Z" fill="#CCCCCC"/>
<path d="M164.303 360.119C164.303 362.173 162.64 363.82 160.605 363.82H108.572C106.519 363.82 104.874 362.155 104.874 360.119C104.874 358.065 106.537 356.418 108.572 356.418H160.605C162.658 356.418 164.303 358.083 164.303 360.119Z" fill="#CCCCCC"/>
<g opacity="0.6">
<path d="M70.3447 103.385C70.3447 104.713 69.2828 105.776 67.9555 105.776H34.4C33.0727 105.776 32.0108 104.713 32.0108 103.385C32.0108 102.057 33.0727 100.995 34.4 100.995H67.9731C69.3005 100.995 70.3624 102.057 70.3624 103.385H70.3447Z" fill="#CCCCCC"/>
<path d="M70.3447 112.912C70.3447 114.24 69.2828 115.303 67.9555 115.303H34.4C33.0727 115.303 32.0108 114.24 32.0108 112.912C32.0108 111.584 33.0727 110.522 34.4 110.522H67.9731C69.3005 110.522 70.3624 111.584 70.3624 112.912H70.3447Z" fill="#CCCCCC"/>
</g>
</g>
<path opacity="0.7" d="M20.3832 143.016L17.286 148.612L17.109 175.883L17.1267 179.247L38.5767 189.004L52.5228 152.738L20.3832 143.016Z" fill="#CCCCCC"/>
<path d="M22.348 135.598L8.17868 172.436L42.8809 185.799L57.0502 148.962L22.348 135.598Z" fill="#45C678"/>
<path d="M608.188 470.441H526.122C519.697 470.441 514.494 475.647 514.494 482.075H619.797C619.797 475.647 614.594 470.441 608.17 470.441H608.188Z" fill="#323232"/>
<path d="M156.923 477.365C156.923 481.385 153.667 484.625 149.667 484.625H112.537C108.519 484.625 105.281 481.367 105.281 477.365C105.281 473.345 108.537 470.105 112.537 470.105H149.667C153.685 470.105 156.923 473.363 156.923 477.365Z" fill="#010202"/>
<path d="M221.734 487.14H217.822V488.521H221.734V487.14Z" fill="#323232"/>
<path d="M185.276 474.142H102.732C94.8033 474.142 88.379 480.57 88.379 488.504H218.459C218.459 480.57 193.204 474.142 185.276 474.142Z" fill="#E470AA"/>
<mask id="mask0_3_4" style="mask-type:luminance" maskUnits="userSpaceOnUse" x="88" y="474" width="131" height="15">
<path d="M185.276 474.142H102.732C94.8033 474.142 88.379 480.57 88.379 488.504H218.459C218.459 480.57 193.204 474.142 185.276 474.142Z" fill="white"/>
</mask>
<g mask="url(#mask0_3_4)">
<path d="M103.847 467.023H66.9821V499.784H103.847V467.023Z" fill="#323232"/>
<path d="M144.853 465.536H143.084V494.454H144.853V465.536Z" fill="#E994BD"/>
<path d="M148.393 465.536H146.623V494.454H148.393V465.536Z" fill="#E994BD"/>
<path opacity="0.2" d="M220.371 470.848H193.824V494.17H220.371V470.848Z" fill="white"/>
</g>
<path d="M617.833 474.39H516.459C508.53 474.39 502.106 480.818 502.106 488.752H632.186C632.186 480.818 625.762 474.39 617.833 474.39Z" fill="#FFC856"/>
<path d="M470.851 54.2981C470.851 57.4324 468.302 59.9824 465.17 59.9824H304.189C301.056 59.9824 298.508 57.4324 298.508 54.2981C298.508 51.1637 301.056 48.6137 304.189 48.6137H465.17C468.302 48.6137 470.851 51.1637 470.851 54.2981Z" fill="#C2DBF6"/>
<path opacity="0.7" d="M109.121 393.074L120.961 437.681L161.295 425.462L146.517 385.318L109.121 393.074Z" fill="#CCCCCC"/>
<path d="M147.583 378.903L109.153 393.066L124.164 433.844L162.593 419.681L147.583 378.903Z" fill="#DE4E96"/>
<path d="M133.881 380.271C136.783 383.228 136.73 387.992 133.774 390.896C130.819 393.8 126.058 393.747 123.156 390.79C120.253 387.832 120.306 383.069 123.262 380.165C126.217 377.261 130.978 377.314 133.881 380.271Z" fill="#BF8C23"/>
<path d="M133.544 380.59C136.447 383.547 136.394 388.31 133.438 391.215C130.483 394.119 125.722 394.066 122.819 391.108C119.917 388.151 119.97 383.388 122.925 380.483C125.881 377.579 130.642 377.632 133.544 380.59Z" fill="#FFBB2E"/>
<path d="M233.603 343.671L198.119 354.79L209.91 392.458L245.394 381.338L233.603 343.671Z" fill="#66C2F0"/>
<path d="M233.522 363.296L227.759 402.344L264.543 407.779L270.306 368.731L233.522 363.296Z" fill="#FFBB2E"/>
<path d="M209.147 394.824L203.384 433.872L240.169 439.307L245.932 400.259L209.147 394.824Z" fill="#45C678"/>
<path d="M371.667 216.931L346.256 273.532L399.579 297.499L424.99 240.898L371.667 216.931Z" fill="#E16070"/>
<path d="M398.979 239.278C404.893 239.278 409.687 234.482 409.687 228.565C409.687 222.648 404.893 217.851 398.979 217.851C393.066 217.851 388.272 222.648 388.272 228.565C388.272 234.482 393.066 239.278 398.979 239.278Z" fill="#949494"/>
<path d="M409.032 228.565C409.032 234.479 404.236 239.278 398.324 239.278C392.413 239.278 387.617 234.479 387.617 228.565C387.617 222.65 392.413 217.851 398.324 217.851C404.236 217.851 409.032 222.65 409.032 228.565Z" fill="#CCCCCC"/>
<path opacity="0.7" d="M169.684 199.151H118.554V261.626H169.684V199.151Z" fill="#CCCCCC"/>
<path opacity="0.2" d="M475.594 353.496L468.09 343.579L462.09 321.356C462.09 321.356 455.401 298.99 452.179 291.925C451.684 290.844 451.153 289.835 450.587 288.861C451.808 289.18 452.994 289.428 454.144 289.587C457.719 290.118 461.046 295.395 466.993 297.733C473.948 300.478 478.249 299.362 481.594 300.92C484.762 302.408 485.735 305.702 489.257 311.581C493.752 319.089 498.477 320.665 500.867 324.242C501.805 325.659 502.46 330.865 502.46 330.865C502.353 332.636 502.69 334.832 502.902 336.053C503.327 338.373 504.778 345.333 504.778 345.333L482.496 357.976L475.594 353.478V353.496ZM663.299 714L598.577 533.695L587.038 535.537L587.145 533.695L582.278 534.208C575.128 512.959 569.393 496.472 566.827 490.115C563.394 481.686 563.447 462.827 564.42 453.778C566.225 437.167 572.207 404.195 576.42 388.027C578.809 378.872 584.897 360.934 587.817 351.938C591.127 341.791 589.268 338.108 586.915 334.283C582.579 327.253 565.889 321.214 558.704 317.159C555.731 315.477 547.749 310.624 543.006 307.72C543.006 307.72 516.388 281.264 508.194 273.791C506.282 272.038 502.07 268.78 499.592 268.019C495.787 266.85 487.593 267.93 483.682 267.169C481.417 266.726 476.974 264.884 474.78 264.619C471.523 264.229 464.002 266.124 460.728 266.248C451.719 266.602 425.756 264.619 425.756 264.619C425.756 264.619 418.111 265.663 420.677 273.791C420.819 274.252 421.526 274.942 422.181 275.491C422.022 275.651 421.863 275.81 421.739 275.952C419.562 278.466 417.757 284.965 417.367 288.489C416.819 293.394 419.12 303.222 418.872 308.145C418.713 311.333 417.12 317.903 418.128 320.913C422.482 333.982 430.181 353.567 433.738 364.599C436.021 371.718 438.145 384.238 441.685 393.428C442.092 394.473 445.295 395.004 445.277 396.137C445.171 414.147 451.348 432.174 456.675 442.976C460.374 450.502 471.7 461.977 474.674 469.396C478.373 478.587 485.753 508.089 493.982 543.434L490.372 543.806L493.345 550.411L479.098 552.678L511.362 713.982H663.264L663.299 714Z" fill="#92A4B9"/>
<g opacity="0.3">
<path d="M377.476 253.268C377.618 248.61 377.972 254.348 378.963 255.534C379.954 256.703 383.299 255.853 384.431 255.446C387.334 254.383 388.573 252.683 391.723 252.347C396.112 251.886 400.271 250.7 404.554 249.673C407.58 248.947 407.12 247.318 404.112 248.044C398.82 249.319 393.404 249.372 388.183 250.7C387.033 251.001 385.723 251.55 384.821 252.347C382.644 254.224 383.299 251.798 382.821 250.062C382.201 247.796 378.396 248.097 376.768 248.734C373.936 249.85 372.45 251.444 372.344 254.649C372.326 255.481 377.423 254.791 377.476 253.268Z" fill="#010202"/>
</g>
<path opacity="0.2" d="M557.146 106.803C562.366 106.803 566.597 102.458 566.597 97.0988C566.597 91.7394 562.366 87.3947 557.146 87.3947C551.927 87.3947 547.696 91.7394 547.696 97.0988C547.696 102.458 551.927 106.803 557.146 106.803Z" fill="#666666"/>
<path d="M530.98 85.2279L507.984 136.45L556.254 158.146L579.25 106.924L530.98 85.2279Z" fill="#66C2F0"/>
<path d="M554.97 107.812C560.883 107.812 565.677 103.016 565.677 97.0988C565.677 91.1819 560.883 86.3854 554.97 86.3854C549.056 86.3854 544.262 91.1819 544.262 97.0988C544.262 103.016 549.056 107.812 554.97 107.812Z" fill="#949494"/>
<path d="M565.004 97.0988C565.004 103.013 560.208 107.812 554.297 107.812C548.386 107.812 543.59 103.013 543.59 97.0988C543.59 91.1843 548.386 86.3854 554.297 86.3854C560.208 86.3854 565.004 91.1843 565.004 97.0988Z" fill="#CCCCCC"/>
<path d="M166.233 195.362H114.908V258.81H166.233V195.362Z" fill="#FFBB2E"/>
<path d="M127.077 189.611L107.956 204.9L112.74 210.89L131.861 195.601L127.077 189.611Z" fill="#949494"/>
<path d="M168.377 244.646L149.256 259.935L154.04 265.925L173.161 250.636L168.377 244.646Z" fill="#949494"/>
<path d="M564.564 188.993L525.786 263.464L586.009 294.859L624.787 220.388L564.564 188.993Z" fill="#B1C909"/>
<path d="M582.43 189.678L550.632 195.926L552.586 205.882L584.384 199.635L582.43 189.678Z" fill="#DE4E96"/>
<path d="M597.262 279.523L565.464 285.771L567.418 295.727L599.216 289.479L597.262 279.523Z" fill="#DE4E96"/>
<path d="M612.4 197.823C600.878 197.823 591.233 206.022 589.003 216.913L585.534 212.061C584.968 211.264 583.853 211.087 583.056 211.653C582.26 212.22 582.083 213.336 582.649 214.132L588.844 222.774C588.844 222.774 588.861 222.774 588.879 222.792C588.879 222.792 588.879 222.827 588.897 222.827C588.914 222.845 588.95 222.863 588.967 222.88C589.074 223.004 589.215 223.111 589.375 223.199C589.428 223.234 589.463 223.288 589.516 223.305C589.516 223.305 589.552 223.305 589.569 223.323C589.799 223.429 590.029 223.482 590.295 223.482C590.472 223.482 590.667 223.447 590.844 223.394C590.879 223.394 590.897 223.376 590.932 223.358C591.003 223.341 591.056 223.305 591.109 223.27C591.18 223.234 591.268 223.217 591.321 223.164C591.321 223.164 591.321 223.146 591.339 223.128C591.339 223.128 591.374 223.128 591.374 223.111L599.834 216.399C600.595 215.797 600.737 214.681 600.117 213.92C599.516 213.159 598.401 213.017 597.64 213.637L592.436 217.763C594.295 208.43 602.524 201.365 612.4 201.365C623.62 201.365 632.752 210.502 632.752 221.729C632.752 232.956 623.62 242.094 612.4 242.094C611.426 242.094 610.63 242.891 610.63 243.865C610.63 244.839 611.426 245.635 612.4 245.635C625.567 245.635 636.292 234.904 636.292 221.729C636.292 208.554 625.567 197.823 612.4 197.823Z" fill="#666666"/>
<path d="M372.698 115.161H298.525V205.774H372.698V115.161Z" fill="#FFBB2E"/>
<path d="M347.372 113.036C347.372 118.951 342.576 123.75 336.664 123.75C330.753 123.75 325.957 118.951 325.957 113.036C325.957 107.122 330.753 102.323 336.664 102.323C342.576 102.323 347.372 107.122 347.372 113.036Z" fill="#949494"/>
<path d="M346.699 113.036C346.699 118.951 341.903 123.75 335.992 123.75C330.081 123.75 325.285 118.951 325.285 113.036C325.285 107.122 330.081 102.323 335.992 102.323C341.903 102.323 346.699 107.122 346.699 113.036Z" fill="#CCCCCC"/>
<path d="M412.784 304.497L398.377 315.299C398.377 315.299 396.979 329.909 414.076 332.122C431.083 334.318 463.471 312.023 480.39 314.715C484.921 315.441 489.965 327.075 494.495 326.42C498.92 325.783 501.999 310.199 501.999 310.199L450.162 277.138L412.766 304.48L412.784 304.497Z" fill="#F7B081"/>
<path d="M411.987 333.929L403.386 341.933C403.386 341.933 404.731 357.551 421.19 354.736C436.623 352.115 477.399 327.111 477.399 327.111H486.797L499.592 334.318L492.584 312.696L458.179 304.692L411.97 333.911L411.987 333.929Z" fill="#FFCAA2"/>
<path d="M416.589 353.142C416.589 353.142 414.235 356.418 414.412 358.189C414.766 361.713 418.589 367.556 424.588 369.965C436.517 374.746 475.806 365.361 475.806 365.361L505.61 344.146L493.611 328.138L476.213 323.729L416.589 353.16V353.142Z" fill="#F7B081"/>
<path d="M395.953 277.156L574.349 431.253L583.924 419.388L405.191 267.416L395.953 277.156Z" fill="#5273BF"/>
<path d="M395.953 277.156L383.44 256.933L405.191 267.416L395.953 277.156Z" fill="#DFA58A"/>
<mask id="mask1_3_4" style="mask-type:luminance" maskUnits="userSpaceOnUse" x="383" y="256" width="23" height="22">
<path d="M395.953 277.156L383.44 256.933L405.191 267.416L395.953 277.156Z" fill="white"/>
</mask>
<g mask="url(#mask1_3_4)">
<path d="M380.803 255.623L385.069 261.378L388.998 257.712L380.75 255.41" fill="#010202"/>
</g>
<path d="M582.879 428.03C580.419 431.448 576.72 433.006 574.632 431.501C572.544 429.996 572.862 426.011 575.322 422.576C577.782 419.158 581.481 417.6 583.57 419.105C585.658 420.61 585.339 424.595 582.879 428.03Z" fill="#5C85B5"/>
<path d="M580.933 426.631C579.747 428.278 577.959 429.039 576.95 428.313C575.942 427.587 576.101 425.657 577.287 424.01C578.472 422.363 580.26 421.602 581.269 422.328C582.278 423.054 582.118 424.984 580.933 426.631Z" fill="#010202"/>
<path d="M412.447 273.951C412.447 273.951 410.04 272.215 409.757 271.312C407.191 263.184 414.837 262.139 414.837 262.139C414.837 262.139 440.8 264.123 449.808 263.769C453.082 263.645 460.604 261.75 463.86 262.139C466.072 262.405 470.497 264.247 472.762 264.689C476.673 265.451 484.868 264.371 488.673 265.539C491.15 266.301 495.363 269.559 497.274 271.312C505.468 278.785 532.086 305.241 532.086 305.241L491.522 328.404C491.522 328.404 490.885 323.197 489.929 321.781C487.54 318.204 482.815 316.628 478.319 309.119C474.797 303.24 473.824 299.946 470.656 298.459C467.311 296.901 463.011 298.016 456.055 295.271C450.109 292.916 446.782 287.639 443.207 287.126C430.906 285.319 412.43 273.951 412.43 273.951H412.447Z" fill="#FFB781"/>
<path d="M410.837 273.473C410.837 273.473 419.314 261.095 437.667 278.643C445.401 286.045 449.365 302.673 449.365 302.673C449.365 302.673 456.073 332.654 460.922 341.561C462.71 344.854 468.479 350.397 472.019 351.619C479.134 354.063 501.999 349.335 501.999 349.335L496.778 351.619L464.816 361.235C464.816 361.235 452.657 347.281 452.516 346.82C452.374 346.377 443.507 312.732 443.507 312.289C443.507 311.846 410.819 273.49 410.819 273.49L410.837 273.473Z" fill="#F6A570"/>
<path d="M422.553 272.003C415.491 269.648 412.235 271.844 410.819 273.473C408.642 275.987 406.837 282.486 406.448 286.01C405.899 290.915 408.2 300.743 407.952 305.666C407.793 308.854 406.2 315.423 407.209 318.434C411.563 331.503 419.261 351.088 422.818 362.12C425.101 369.239 440.446 429.677 445.773 440.497C449.472 448.023 460.798 459.498 463.772 466.917C474.939 494.631 513.769 693.193 513.769 693.193L626.257 699.125C626.257 699.125 566.403 513.454 555.89 487.636C552.456 479.207 552.51 460.348 553.483 451.299C555.288 434.688 561.27 401.716 565.482 385.548C567.871 376.393 573.96 358.454 576.88 349.459C580.189 339.312 578.331 335.629 575.977 331.804C571.641 324.791 554.952 318.735 547.766 314.68C543.413 312.218 528.352 302.975 528.352 302.975C528.352 302.975 497.309 316.805 491.947 326.403C491.062 327.979 491.628 331.839 491.947 333.61C492.372 335.93 493.823 342.889 493.823 342.889C493.823 342.889 478.408 355.054 472.019 354.541C465.223 353.992 459.223 343.721 457.861 340.923C455.33 335.753 452.64 324.455 451.118 318.912C449.065 311.421 444.428 296.547 441.207 289.481C436.641 279.423 428.482 274.022 422.5 272.038L422.553 272.003Z" fill="#FFB781"/>
<mask id="mask2_3_4" style="mask-type:luminance" maskUnits="userSpaceOnUse" x="406" y="270" width="221" height="430">
<path d="M422.553 272.003C415.491 269.648 412.235 271.844 410.819 273.473C408.642 275.987 406.837 282.486 406.448 286.01C405.899 290.915 408.2 300.743 407.952 305.666C407.793 308.854 406.2 315.423 407.209 318.434C411.563 331.503 419.261 351.088 422.818 362.12C425.101 369.239 440.446 429.677 445.773 440.497C449.472 448.023 460.798 459.498 463.772 466.917C474.939 494.631 513.769 693.193 513.769 693.193L626.257 699.125C626.257 699.125 566.403 513.454 555.89 487.636C552.456 479.207 552.51 460.348 553.483 451.299C555.288 434.688 561.27 401.716 565.482 385.548C567.871 376.393 573.96 358.454 576.88 349.459C580.189 339.312 578.331 335.629 575.977 331.804C571.641 324.791 554.952 318.735 547.766 314.68C543.413 312.218 528.352 302.975 528.352 302.975C528.352 302.975 497.309 316.805 491.947 326.403C491.062 327.979 491.628 331.839 491.947 333.61C492.372 335.93 493.823 342.889 493.823 342.889C493.823 342.889 478.408 355.054 472.019 354.541C465.223 353.992 459.223 343.721 457.861 340.923C455.33 335.753 452.64 324.455 451.118 318.912C449.065 311.421 444.428 296.547 441.207 289.481C436.641 279.423 428.482 274.022 422.5 272.038L422.553 272.003Z" fill="white"/>
</mask>
<g mask="url(#mask2_3_4)">
<path d="M479.47 541.345L576.225 531.216L575.712 540.902L486.779 557.495L479.47 541.345Z" fill="#F6A570"/>
</g>
<path d="M408.766 308.358C408.766 308.358 422.553 298.123 426.004 294.634C426.924 293.695 427.898 291.057 427.88 289.747C427.739 284.505 427.898 272.516 416.783 273.526C412.377 273.933 409.828 276.448 408.678 278.537C407.191 281.247 406.377 285.443 406.377 287.852C406.377 293.023 408.784 308.376 408.784 308.376L408.766 308.358Z" fill="#FFDDC4"/>
<path d="M468.214 550.199L506.459 714H656.008L587.658 531.216L468.214 550.199Z" fill="#B1C909"/>
<path d="M468.214 550.199L475.364 580.551L597.693 558.132L587.658 531.216L468.214 550.199Z" fill="white"/>
</g>
<defs>
<clipPath id="clip0_3_4">
<rect width="684.878" height="713.854" fill="white" transform="translate(0.756073 0.146347)"/>
</clipPath>
</defs>
</svg>
